<svg width="512" height="512" xmlns="http://www.w3.org/2000/svg">

 <g>
  <title>Layer 1</title>
  <path id="svg_45" d="m256.00005,54.52515c-133.78125,0 -242.25153,72.1134 -242.25153,161.07598c0,50.88491 35.60805,96.2229 91.04762,125.73089c-7.88827,26.16101 -23.63062,55.13635 -54.05649,80.76387c0,0 71.0205,-4.70294 121.18339,-55.59476c2.88787,0.70862 5.87709,1.24199 8.79228,1.89632c-2.73967,-8.17856 -4.35257,-16.68065 -4.35257,-25.52684c0,-60.0213 66.79655,-107.01947 152.10833,-107.01947c61.27617,0 112.8363,24.33906 137.10762,60.25077c20.66199,-23.70508 32.67278,-51.16171 32.67278,-80.52122c0,-88.94213 -108.47026,-161.05553 -242.25141,-161.05553l-0.00002,0zm206.87282,288.35917c0,-49.34667 -60.16299,-89.38098 -134.42207,-89.38098c-74.21857,0 -134.41548,40.03431 -134.41548,89.38098c0,49.37315 60.19691,89.38751 134.41548,89.38751c16.43732,0 32.09234,-2.05819 46.64738,-5.64769c27.82767,28.25278 67.23445,30.85072 67.23445,30.85072c-16.87574,-14.22456 -25.59391,-30.29795 -29.98027,-44.82581c30.74304,-16.35635 50.52052,-41.51228 50.52052,-69.76472z" fill="#00ff00"/>
  <g stroke="null" id="svg_56">
   <path stroke="null" id="svg_54" d="m122.90621,243.57088c0.27523,1.10091 157.70528,-173.39323 157.50161,-173.59381c0.20367,0.20058 -142.08887,194.51109 -142.29254,194.31051c0.20367,0.20058 -15.48429,-21.81761 -15.20907,-20.7167z" opacity="NaN" fill="#00ffff"/>
   <path stroke="null" id="svg_55" d="m121.25503,100.55425c0.28966,-1.02955 165.97258,162.15396 165.75823,162.34153c0.21435,-0.18757 -149.53753,-181.90296 -149.75187,-181.71538c0.21434,-0.18758 -16.29602,20.4034 -16.00636,19.37385z" opacity="NaN" fill="#00ffff"/>
  </g>
 </g>
</svg>